<?xml version="1.0" encoding="utf-8"?>
<!-- Generator: Adobe Illustrator 26.4.1, SVG Export Plug-In . SVG Version: 6.00 Build 0)  -->
<svg version="1.1" id="Layer_1" xmlns="http://www.w3.org/2000/svg" xmlns:xlink="http://www.w3.org/1999/xlink" x="0px" y="0px"
	 viewBox="0 0 1080 910" style="enable-background:new 0 0 1080 910;" xml:space="preserve">
<style type="text/css">
	.st0{fill:url(#SVGID_1_);}
	.st1{fill:url(#SVGID_00000094596936293395718390000005383006575043198879_);}
	.st2{fill:url(#SVGID_00000172423879388393322030000003016060254389367741_);}
	.st3{fill:url(#SVGID_00000019646964095692938940000005509782469387960247_);}
	.st4{fill:url(#SVGID_00000164481344903911644870000009860452568834378423_);}
	.st5{fill:url(#SVGID_00000138564718694943304380000006749520741931042474_);}
	.st6{fill:url(#SVGID_00000142875539324101055630000008448599707059871119_);}
	.st7{fill:url(#SVGID_00000045598490768064079730000017359462692421229197_);}
</style>
<g>
	<g>
		<g>
			
				<linearGradient id="SVGID_1_" gradientUnits="userSpaceOnUse" x1="189.1654" y1="-80.7503" x2="852.2691" y2="818.3737" gradientTransform="matrix(1 0 0 -1 0 912)">
				<stop  offset="0" style="stop-color:#10ACE8"/>
				<stop  offset="1" style="stop-color:#1CD2BE"/>
			</linearGradient>
			<path class="st0" d="M632.5,890.5h-170V704.7h170c137.7,0,249.6-112,249.6-249.6s-112-249.7-249.6-249.7H319.3V19.5h313.1
				c240.1,0,435.5,195.3,435.5,435.5C1067.9,695.1,872.6,890.5,632.5,890.5z"/>
			
				<linearGradient id="SVGID_00000049208877986123746800000001668729898424123804_" gradientUnits="userSpaceOnUse" x1="86.3269" y1="-4.9069" x2="749.431" y2="894.2171" gradientTransform="matrix(1 0 0 -1 0 912)">
				<stop  offset="0" style="stop-color:#10ACE8"/>
				<stop  offset="1" style="stop-color:#1CD2BE"/>
			</linearGradient>
			
				<rect x="209.7" y="451.9" style="fill:url(#SVGID_00000049208877986123746800000001668729898424123804_);" width="252.8" height="252.8"/>
			
				<linearGradient id="SVGID_00000124872303034722040240000008724007845406092726_" gradientUnits="userSpaceOnUse" x1="-163.3496" y1="179.2294" x2="499.7545" y2="1078.3534" gradientTransform="matrix(1 0 0 -1 0 912)">
				<stop  offset="0" style="stop-color:#10ACE8"/>
				<stop  offset="1" style="stop-color:#1CD2BE"/>
			</linearGradient>
			
				<rect x="66.6" y="253.9" style="fill:url(#SVGID_00000124872303034722040240000008724007845406092726_);" width="141.8" height="141.8"/>
			
				<linearGradient id="SVGID_00000075881448402566255550000016361288959162597051_" gradientUnits="userSpaceOnUse" x1="-33.491" y1="83.459" x2="629.6128" y2="982.5829" gradientTransform="matrix(1 0 0 -1 0 912)">
				<stop  offset="0" style="stop-color:#10ACE8"/>
				<stop  offset="1" style="stop-color:#1CD2BE"/>
			</linearGradient>
			
				<rect x="12.1" y="639.7" style="fill:url(#SVGID_00000075881448402566255550000016361288959162597051_);" width="107.9" height="107.9"/>
		</g>
	</g>
</g>
<g>
	<g>
		<g>
			
				<linearGradient id="SVGID_00000183932138612687898600000003159338471297309315_" gradientUnits="userSpaceOnUse" x1="-344.8142" y1="215.0509" x2="-309.5765" y2="167.2709">
				<stop  offset="0" style="stop-color:#10ACE8"/>
				<stop  offset="1" style="stop-color:#1CD2BE"/>
			</linearGradient>
			<path style="fill:url(#SVGID_00000183932138612687898600000003159338471297309315_);" d="M-324.8,221.2h-11.7V208h11.7
				c8.8,0,15.9-7.1,15.9-15.9c0-8.8-7.1-15.9-15.9-15.9h-21v-13.2h21c16,0,29.1,13,29.1,29.1C-295.7,208.2-308.7,221.2-324.8,221.2z
				 M-335.4,220.2h10.6c15.5,0,28.1-12.6,28.1-28.1c0-15.5-12.6-28.1-28.1-28.1h-20v11.2h20c9.3,0,16.9,7.6,16.9,16.9
				c0,9.3-7.6,16.9-16.9,16.9h-10.6V220.2z"/>
		</g>
		<g>
			
				<linearGradient id="SVGID_00000086687806856950070860000001865606544119073973_" gradientUnits="userSpaceOnUse" x1="-351.4969" y1="210.1604" x2="-336.8986" y2="190.366">
				<stop  offset="0" style="stop-color:#10ACE8"/>
				<stop  offset="1" style="stop-color:#1CD2BE"/>
			</linearGradient>
			<path style="fill:url(#SVGID_00000086687806856950070860000001865606544119073973_);" d="M-335.4,209.1H-353v-17.6h17.6V209.1z
				 M-352,208h15.6v-15.6H-352V208z"/>
		</g>
		<g>
			
				<linearGradient id="SVGID_00000052085593880362493380000001798046758423569820_" gradientUnits="userSpaceOnUse" x1="-361.5037" y1="189.4429" x2="-352.945" y2="177.8378">
				<stop  offset="0" style="stop-color:#10ACE8"/>
				<stop  offset="1" style="stop-color:#1CD2BE"/>
			</linearGradient>
			<path style="fill:url(#SVGID_00000052085593880362493380000001798046758423569820_);" d="M-352.1,188.8h-10.3v-10.3h10.3V188.8z
				 M-361.4,187.8h8.3v-8.3h-8.3V187.8z"/>
		</g>
		<g>
			
				<linearGradient id="SVGID_00000166663490940956306200000004767931036211094661_" gradientUnits="userSpaceOnUse" x1="-365.2684" y1="212.3826" x2="-358.5548" y2="203.2795">
				<stop  offset="0" style="stop-color:#10ACE8"/>
				<stop  offset="1" style="stop-color:#1CD2BE"/>
			</linearGradient>
			<path style="fill:url(#SVGID_00000166663490940956306200000004767931036211094661_);" d="M-357.9,211.9h-8.1v-8.1h8.1V211.9z
				 M-364.9,210.9h6.1v-6.1h-6.1V210.9z"/>
		</g>
	</g>
</g>
</svg>
