<?xml version="1.0" encoding="utf-8"?>
<!-- Generator: Adobe Illustrator 26.4.1, SVG Export Plug-In . SVG Version: 6.00 Build 0)  -->
<svg version="1.1" id="Layer_1" xmlns="http://www.w3.org/2000/svg" xmlns:xlink="http://www.w3.org/1999/xlink" x="0px" y="0px"
	 viewBox="0 0 1080 250" style="enable-background:new 0 0 1080 250;" xml:space="preserve">
<style type="text/css">
	.st0{fill:url(#SVGID_1_);}
	.st1{fill:url(#SVGID_00000104678595467457841130000004736722767768826047_);}
	.st2{fill:url(#SVGID_00000106145840708287582080000011144807220509972907_);}
	.st3{fill:url(#SVGID_00000114795019137500105040000000607357457545289631_);}
	.st4{fill:#FFFFFF;}
	.st5{fill:#A7A9AD;}
</style>
<g>
	<g>
		<g>
			<linearGradient id="SVGID_1_" gradientUnits="userSpaceOnUse" x1="56.1304" y1="262.1627" x2="225.2655" y2="32.8269">
				<stop  offset="0" style="stop-color:#10ACE8"/>
				<stop  offset="1" style="stop-color:#1CD2BE"/>
			</linearGradient>
			<path class="st0" d="M169.2,236.07h-43.36v-47.39h43.36c35.11,0,63.67-28.56,63.67-63.67s-28.56-63.68-63.67-63.68H89.33V13.93
				h79.87c61.24,0,111.07,49.82,111.07,111.07C280.27,186.24,230.44,236.07,169.2,236.07z"/>
			
				<linearGradient id="SVGID_00000049914630953048583030000008352041262408113825_" gradientUnits="userSpaceOnUse" x1="29.8995" y1="242.8174" x2="199.0347" y2="13.4816">
				<stop  offset="0" style="stop-color:#10ACE8"/>
				<stop  offset="1" style="stop-color:#1CD2BE"/>
			</linearGradient>
			
				<rect x="61.37" y="124.2" style="fill:url(#SVGID_00000049914630953048583030000008352041262408113825_);" width="64.47" height="64.47"/>
			
				<linearGradient id="SVGID_00000021818973180218433300000013288266243910673597_" gradientUnits="userSpaceOnUse" x1="-33.788" y1="195.8479" x2="135.3472" y2="-33.4879">
				<stop  offset="0" style="stop-color:#10ACE8"/>
				<stop  offset="1" style="stop-color:#1CD2BE"/>
			</linearGradient>
			
				<rect x="24.87" y="73.71" style="fill:url(#SVGID_00000021818973180218433300000013288266243910673597_);" width="36.17" height="36.17"/>
			
				<linearGradient id="SVGID_00000073720804825523351890000011202219770686351747_" gradientUnits="userSpaceOnUse" x1="-0.6584" y1="220.2809" x2="168.4767" y2="-9.0549">
				<stop  offset="0" style="stop-color:#10ACE8"/>
				<stop  offset="1" style="stop-color:#1CD2BE"/>
			</linearGradient>
			
				<rect x="10.96" y="172.1" style="fill:url(#SVGID_00000073720804825523351890000011202219770686351747_);" width="27.52" height="27.52"/>
		</g>
	</g>
	<g>
		<path class="st4" d="M738.55,109.53c11.64,0.32,23.21,0.64,34.97,0.96c0,2.06,0,3.97,0,5.87c0,2.26-0.06,4.52,0.02,6.78
			c0.04,1.19-0.29,1.59-1.54,1.62c-10.71,0.24-21.43,0.56-32.14,0.85c-0.39,0.01-0.77,0.05-1.35,0.08c0,1.15,0,2.26,0,3.37
			c0.01,3.09-0.06,6.19,0.04,9.28c0.16,4.66,2.45,6.89,7.12,7.01c2.51,0.07,5.01,0.02,7.52,0.02c8.01,0,16.03,0,24.04,0
			c0.58,0,1.17,0,1.86,0c0,5.03,0,9.96,0,15.07c-2.91,0.26-5.83,0.64-8.76,0.75c-9.53,0.38-19.06,0.76-28.59,0.95
			c-4.34,0.09-8.63-0.48-12.58-2.56c-4.65-2.46-7.24-6.38-8.08-11.46c-0.34-2.07-0.44-4.2-0.45-6.31
			c-0.04-15.87-0.02-31.74-0.02-47.61c0-3.75,0.28-7.46,1.93-10.93c2.98-6.27,8.31-9.15,14.89-9.82c3.94-0.4,7.96-0.38,11.93-0.23
			c9.48,0.35,18.95,0.88,28.42,1.35c0.43,0.02,0.85,0.11,1.34,0.17c0,4.98,0,9.87,0,14.95c-0.62,0-1.19,0-1.76,0
			c-10.03,0-20.06-0.02-30.09,0.02c-1.41,0.01-2.86,0.15-4.22,0.49c-2.4,0.61-3.86,2.24-4.31,4.7c-0.09,0.48-0.2,0.97-0.2,1.46
			C738.54,100.72,738.55,105.04,738.55,109.53z"/>
		<path class="st4" d="M847.34,189.82c-6.01,0-11.85,0-17.89,0c0-11.28,0-22.49,0-33.77c-2.53,1.4-4.79,2.87-7.22,3.96
			c-7.7,3.46-15.4,3.14-22.83-0.76c-4.69-2.46-7.03-6.87-8.39-11.78c-1.98-7.13-2.34-14.45-1.88-21.77
			c0.29-4.53,0.79-9.13,1.89-13.52c2.43-9.75,8.33-14.72,18.35-15.44c5.52-0.39,11.11-0.23,16.64,0.1c6.71,0.41,13.4,1.29,20.1,1.89
			c1.11,0.1,1.36,0.5,1.36,1.54c-0.02,29.43-0.02,58.86-0.02,88.3C847.43,188.95,847.38,189.34,847.34,189.82z M829.42,109.99
			c-3.98,0-7.76-0.09-11.52,0.02c-4.82,0.14-8.12,2.53-9.46,7.19c-2.28,7.95-2.12,16.03-0.22,24.02c1.06,4.44,3.54,6.2,8.11,6.6
			c4.15,0.36,7.93-0.94,11.64-2.62c1.06-0.48,1.49-1.09,1.49-2.33c-0.06-10.41-0.03-20.82-0.03-31.23
			C829.42,111.15,829.42,110.66,829.42,109.99z"/>
		<path class="st4" d="M1029.24,189.9c2.32-9.5,4.59-18.78,6.87-28.1c-1.86-0.28-3.72-0.4-5.49-0.85
			c-7.76-1.98-12.09-7.43-14.14-14.77c-2.64-9.44-4.98-18.98-7.43-28.47c-1.62-6.27-3.22-12.54-4.82-18.82
			c-0.11-0.42-0.18-0.84-0.3-1.45c0.65-0.03,1.16-0.08,1.68-0.08c5.11-0.01,10.23,0.05,15.34-0.04c1.26-0.02,1.67,0.42,1.94,1.56
			c3.14,13.57,6.28,27.14,9.55,40.69c0.45,1.85,1.35,3.67,2.38,5.28c0.94,1.46,2.65,1.92,4.52,2.05c0.82-3.48,1.64-6.9,2.44-10.33
			c2.95-12.61,5.9-25.22,8.8-37.84c0.25-1.07,0.64-1.42,1.74-1.41c5.11,0.06,10.23,0.02,15.34,0.03c0.39,0,0.77,0.04,1.41,0.07
			c-0.33,1.45-0.64,2.81-0.96,4.16c-5.94,25.06-11.85,50.12-17.88,75.16c-0.56,2.34-1.88,4.51-2.9,6.73
			c-0.86,1.87-1.76,3.73-2.73,5.55c-0.21,0.39-0.76,0.84-1.15,0.84C1038.8,189.92,1034.18,189.9,1029.24,189.9z"/>
		<path class="st4" d="M900.41,97.41c6.1,0,11.94,0,17.9,0c0,21.39,0,42.72,0,64.21c-2.89,0-5.72,0-8.56,0
			c-1.72,0-3.44-0.04-5.16,0.02c-0.8,0.03-1.23-0.22-1.56-0.97c-0.78-1.79-1.66-3.54-2.49-5.27c-3.01,1.48-5.89,3.03-8.88,4.32
			c-5.48,2.37-11.24,3.22-17.15,2.24c-7.78-1.3-12.92-6.82-13.88-14.69c-0.19-1.56-0.3-3.13-0.3-4.7
			c-0.02-14.54-0.01-29.08-0.01-43.62c0-0.44,0-0.88,0-1.45c5.95,0,11.81,0,17.88,0c0,0.66,0,1.28,0,1.9
			c0,12.28-0.02,24.56,0.02,36.84c0,1.61,0.18,3.23,0.45,4.82c0.39,2.34,1.87,3.82,4.07,4.62c3.96,1.42,7.86,0.91,11.66-0.57
			c6.05-2.36,6.03-2.41,6.03-8.83c0-12.33,0-24.66,0-36.99C900.41,98.7,900.41,98.12,900.41,97.41z"/>
		<path class="st4" d="M967.11,111.8c-3.36,0-6.58,0-10,0c0-2.81,0-5.5,0-8.18c0-0.64,0.07-1.29-0.01-1.91
			c-0.15-1.16,0.32-1.61,1.45-1.87c2.53-0.57,5.01-1.4,7.55-1.96c1.33-0.3,1.77-0.97,1.93-2.26c0.64-5.3,1.38-10.6,2.1-15.99
			c4.72,0,9.36,0,14.15,0c0,5.85,0,11.67,0,17.66c5.04,0,9.92,0,14.95,0c0,4.88,0,9.61,0,14.46c-4.89,0-9.78,0-14.9,0
			c0,0.6,0,1.06,0,1.53c0,8.3-0.03,16.6,0.02,24.91c0.01,1.56,0.18,3.15,0.54,4.66c0.66,2.71,2.51,4.26,5.29,4.61
			c1.9,0.24,3.81,0.38,5.72,0.57c0.92,0.09,1.83,0.19,2.79,0.29c0,4.46,0,8.81,0,13.34c-6.88-0.3-13.72,0.64-20.45-1.04
			c-6.01-1.51-9.66-5.4-10.74-11.38c-0.68-3.74-0.89-7.6-0.88-11.41c0.02-7.86,0.32-15.72,0.5-23.57
			C967.12,113.51,967.11,112.77,967.11,111.8z"/>
		<path class="st4" d="M949.13,161.54c-5.96,0-11.78,0-17.69,0c0-21.37,0-42.66,0-64.07c5.89,0,11.74,0,17.69,0
			C949.13,118.83,949.13,140.12,949.13,161.54z"/>
		<path class="st4" d="M940.39,88.2c-2.21,0-4.42,0.03-6.63-0.01c-1.98-0.03-2.73-0.68-2.76-2.62c-0.06-3.82-0.07-7.65,0-11.47
			c0.04-2.01,0.8-2.69,2.86-2.71c4.32-0.03,8.64-0.03,12.96,0c1.84,0.01,2.69,0.74,2.72,2.55c0.07,3.97,0.07,7.94,0,11.91
			c-0.03,1.73-0.74,2.32-2.52,2.34C944.81,88.22,942.6,88.2,940.39,88.2z"/>
	</g>
	<g>
		<path class="st5" d="M1015.17,212.17c-1.44,0-2.74,0-4.25,0c0-0.63,0-1.2,0-1.78c-0.01-4.71,0.03-9.43-0.06-14.14
			c-0.08-4.41-2.22-6.72-6.08-6.76c-4.07-0.04-7.11,2.68-7.24,6.75c-0.15,4.66-0.07,9.33-0.09,13.99c0,0.58,0,1.17,0,1.88
			c-1.44,0-2.78,0-4.29,0c0-0.56,0-1.09,0-1.61c0-4.32,0.01-8.64-0.01-12.96c0-0.88-0.01-1.78-0.17-2.64
			c-0.73-3.99-2.79-5.61-6.74-5.37c-3.59,0.22-6.34,2.85-6.44,6.41c-0.14,4.86-0.15,9.72-0.13,14.58c0.01,1.3-0.3,1.93-1.72,1.74
			c-0.76-0.1-1.55-0.02-2.41-0.02c-0.04-0.56-0.1-0.99-0.1-1.41c-0.01-7.56,0.02-15.13-0.03-22.69c-0.01-1.22,0.34-1.75,1.57-1.57
			c0.14,0.02,0.29,0,0.44,0c2.26-0.01,2.26-0.01,2.32,2.27c0.01,0.28,0.05,0.56,0.11,1.22c2.36-3.07,5.29-4.51,8.88-4.44
			c3.65,0.07,6.57,1.47,8.35,4.98c0.51-0.6,0.91-1.09,1.33-1.56c3.06-3.51,8.91-4.51,12.93-2.19c2.3,1.33,3.68,3.45,3.75,6
			C1015.29,199.23,1015.17,205.62,1015.17,212.17z"/>
		<path class="st5" d="M948.63,200.09c-0.24,4.05,1.76,7.67,5,8.85c5.27,1.93,8.88-0.48,11.62-4.92c1.15,0.78,2.2,1.49,3.32,2.24
			c-2.62,4.79-6.61,7.04-11.93,7.03c-7.14-0.01-12.33-4.99-12.8-12.13c-0.26-4.04,0.26-7.81,2.88-11.09
			c2.71-3.4,6.3-4.68,10.53-4.46c7.89,0.41,11.46,6.38,11.45,13.37c0,1.14-0.67,1.1-1.44,1.1c-5.6,0-11.2,0-16.81,0
			C949.87,200.09,949.29,200.09,948.63,200.09z M948.66,196.35c5.12,0,10.15,0,15.18,0c0.07-3.74-2.69-6.57-6.56-6.82
			C952.45,189.23,949.19,191.74,948.66,196.35z"/>
		<path class="st5" d="M878.69,186.59c1.63,0,3.01-0.1,4.36,0.06c0.44,0.05,0.98,0.7,1.19,1.19c2.08,5.03,4.1,10.08,6.14,15.13
			c0.2,0.49,0.42,0.97,0.75,1.75c0.34-0.71,0.58-1.16,0.78-1.63c2.14-5.01,4.31-10,6.38-15.03c0.47-1.13,1.06-1.62,2.28-1.5
			c0.97,0.09,1.95,0.02,3.19,0.02c-0.28,0.7-0.45,1.19-0.66,1.65c-5.22,11.63-10.46,23.26-15.62,34.91
			c-0.55,1.25-1.21,1.71-2.52,1.57c-0.96-0.1-1.94-0.02-3.15-0.02c0.3-0.72,0.49-1.2,0.71-1.67c1.84-4.01,3.67-8.03,5.55-12.02
			c0.44-0.93,0.44-1.71,0.03-2.64c-2.91-6.65-5.78-13.31-8.66-19.97C879.21,187.9,879.02,187.41,878.69,186.59z"/>
		<path class="st5" d="M876.1,190.65c-1.41,0.87-2.52,1.56-3.71,2.29c-1.15-1.82-2.49-3.29-4.6-3.51c-1.08-0.11-2.27-0.01-3.3,0.32
			c-1.35,0.44-2.13,1.56-2.25,3.01c-0.12,1.37,0.71,2.24,1.8,2.8c1.3,0.67,2.69,1.17,4.05,1.72c1.32,0.53,2.67,0.98,3.97,1.54
			c5.88,2.54,4.78,10.1,0.97,12.73c-5.03,3.47-13.18,1.79-16.23-3.7c1.17-0.8,2.36-1.61,3.64-2.48c0.37,0.5,0.68,0.92,1,1.33
			c1.82,2.37,4.96,3.36,7.63,2.39c1.5-0.54,2.57-1.53,2.68-3.18c0.11-1.58-0.72-2.74-2.14-3.37c-1.88-0.83-3.84-1.5-5.7-2.37
			c-1.19-0.55-2.36-1.22-3.41-2.02c-3.63-2.77-3.65-7.6-0.11-10.49c3.45-2.81,10.13-2.73,13.45,0.24
			C874.64,188.65,875.25,189.62,876.1,190.65z"/>
		<path class="st5" d="M905.17,207.84c1.29-0.87,2.46-1.65,3.68-2.47c0.4,0.54,0.7,0.99,1.02,1.4c1.8,2.3,4.88,3.26,7.52,2.34
			c1.51-0.52,2.59-1.49,2.73-3.14c0.14-1.65-0.73-2.83-2.21-3.48c-1.84-0.81-3.75-1.46-5.57-2.3c-1.19-0.55-2.37-1.21-3.42-2
			c-3.79-2.87-3.69-7.93,0.15-10.75c3.41-2.5,9.61-2.44,12.87,0.24c0.95,0.78,1.64,1.87,2.56,2.95c-1.39,0.86-2.5,1.55-3.71,2.31
			c-1.16-1.73-2.45-3.25-4.56-3.49c-1.04-0.12-2.17-0.07-3.17,0.22c-1.41,0.42-2.27,1.51-2.44,3.03c-0.15,1.44,0.73,2.33,1.86,2.91
			c1.26,0.65,2.6,1.13,3.92,1.65c1.23,0.49,2.49,0.9,3.71,1.41c2.92,1.23,4.53,3.4,4.45,6.62c-0.08,3.29-1.62,5.7-4.65,7.08
			c-5.02,2.3-11.63,0.56-14.33-3.74C905.46,208.43,905.36,208.21,905.17,207.84z"/>
		<path class="st5" d="M936.36,212.17c-1.57,0-2.93,0-4.54,0c0-0.57,0-1.13,0-1.69c0-6.28-0.03-12.56,0.02-18.85
			c0.01-1.18-0.37-1.57-1.51-1.48c-0.97,0.08-1.95,0.02-3.18,0.02c0-1.01-0.1-1.94,0.05-2.82c0.05-0.31,0.71-0.7,1.13-0.73
			c1.11-0.1,2.23-0.03,3.49-0.03c0-3.12,0.05-6.01-0.02-8.9c-0.03-1.14,0.29-1.56,1.48-1.52c3.72,0.1,3.03-0.39,3.08,3
			c0.04,2.4,0.01,4.79,0.01,7.43c1.28,0,2.39,0,3.51,0c1.6,0,1.06,1.21,1.12,2.03c0.06,0.77,0.16,1.61-1.11,1.58
			c-1.11-0.03-2.72-0.28-3.2,0.31c-0.59,0.73-0.3,2.22-0.3,3.39c-0.02,5.5-0.01,10.99-0.01,16.49
			C936.36,210.95,936.36,211.52,936.36,212.17z"/>
	</g>
	<g>
		<path class="st4" d="M365.16,161.73c0-29.27,0-58.43,0-87.65c0.41-0.05,0.74-0.14,1.07-0.13c11.83,0.03,23.66-0.12,35.48,0.14
			c10.08,0.22,17.17,5.26,21.29,14.46c2.84,6.34,3.82,13.09,4.35,19.92c0.57,7.38,0.53,14.76-0.51,22.1
			c-1.16,8.16-3.24,16-8.59,22.59c-4.49,5.53-10.36,8.48-17.43,8.59c-11.63,0.18-23.26,0.06-34.89,0.07
			C365.72,161.82,365.53,161.78,365.16,161.73z M372.4,155.24c9.68,0,19.2,0.16,28.7-0.07c4.33-0.11,7.98-2.2,10.88-5.55
			c3.17-3.67,5.04-7.95,6.25-12.56c2.11-7.98,2.44-16.12,2.14-24.31c-0.22-6.01-0.73-11.99-2.5-17.77
			c-2.68-8.71-7.73-14.27-17.91-14.5c-9.01-0.2-18.04-0.09-27.06-0.11c-0.14,0-0.27,0.08-0.51,0.15
			C372.4,105.39,372.4,130.27,372.4,155.24z"/>
		<path class="st4" d="M554.72,161.77c-1.92,0-3.59,0-5.45,0c-0.47-2.31-0.95-4.63-1.45-7.13c-0.63,0.28-1.15,0.49-1.66,0.74
			c-6.63,3.21-13.48,5.79-20.8,6.84c-3.92,0.56-7.88,0.6-11.63-1c-5.12-2.19-8.36-5.99-8.81-11.58c-0.31-3.8-0.42-7.72,0.18-11.45
			c1.07-6.69,6.36-11.31,13.5-12.41c2.23-0.34,4.51-0.48,6.77-0.5c6.75-0.06,13.5-0.02,20.25-0.02c0.58,0,1.16,0,1.96,0
			c-0.24-4.85,0.59-9.59-0.8-14.2c-1.48-4.93-5.33-6.98-10.04-7.7c-2.42-0.37-4.9-0.5-7.36-0.53c-5.76-0.07-11.53-0.02-17.3-0.02
			c-0.54,0-1.08,0-1.84,0c0-1.3-0.05-2.52,0.04-3.72c0.02-0.28,0.5-0.72,0.81-0.75c9.02-0.94,18.03-2.01,27.12-1.18
			c4.13,0.37,8.05,1.57,11.23,4.4c3.62,3.21,4.97,7.5,5.16,12.15c0.19,4.67,0.13,9.35,0.13,14.02c0.01,10.73,0,21.46,0,32.18
			C554.72,160.48,554.72,161.06,554.72,161.77z M547.53,129.4c-0.37-0.06-0.51-0.12-0.65-0.11c-7.92,0.31-15.85,0.5-23.76,0.99
			c-4.46,0.27-8.23,2.09-10.11,6.51c-1.7,4-1.67,8.2-0.65,12.3c0.43,1.71,1.54,3.45,2.81,4.7c3.09,3.05,7.15,3.44,11.18,2.84
			c6.88-1.03,13.5-3.1,20.01-5.53c0.96-0.36,1.21-0.89,1.19-1.86c-0.06-3.44-0.02-6.89-0.02-10.33
			C547.53,135.76,547.53,132.62,547.53,129.4z"/>
		<path class="st4" d="M448.72,133.07c-0.03,4.77,0.29,9.23,1.6,13.54c1.67,5.49,5.55,8.55,11.12,9.51c2.08,0.36,4.2,0.59,6.31,0.62
			c6.85,0.08,13.7,0.04,20.55,0.05c0.59,0,1.18,0,1.9,0c0,1.48,0,2.87,0,4.45c-2.91,0.27-5.83,0.69-8.76,0.8
			c-5.95,0.21-11.92,0.5-17.87,0.28c-3.19-0.12-6.45-0.9-9.48-1.94c-6.11-2.09-9.17-6.96-10.74-12.93
			c-1.62-6.15-1.87-12.43-1.83-18.74c0.03-5.52,0.4-11,1.79-16.38c2-7.74,6.75-12.58,14.7-14.14c6.95-1.36,13.91-1.37,20.82,0.16
			c6.46,1.42,10.62,5.34,12.08,11.88c0.93,4.17,1.21,8.4,0.33,12.59c-1.13,5.35-4.72,8.4-9.96,9.43c-2.64,0.52-5.37,0.76-8.06,0.8
			c-7.54,0.1-15.08,0.04-22.62,0.04C450.04,133.07,449.46,133.07,448.72,133.07z M448.6,127.79c0.55,0.04,0.84,0.08,1.13,0.08
			c7.98,0,15.97,0.02,23.95-0.02c1.47-0.01,2.95-0.15,4.41-0.38c4.07-0.63,6.52-2.9,6.85-6.94c0.22-2.76,0.01-5.61-0.44-8.35
			c-0.8-4.88-3.96-7.64-8.73-8.59c-5.58-1.11-11.16-1.1-16.69,0.33c-3.46,0.89-6.16,2.88-7.71,6.15
			C448.71,115.66,448.7,121.67,448.6,127.79z"/>
		<path class="st4" d="M612.88,133.07c-0.01,4.84,0.3,9.39,1.7,13.79c1.73,5.44,5.65,8.4,11.15,9.27c2.62,0.41,5.29,0.59,7.94,0.63
			c6.31,0.09,12.62,0.03,18.93,0.03c0.54,0,1.08,0,1.76,0c0,1.47,0,2.86,0,4.44c-2.9,0.27-5.82,0.69-8.75,0.79
			c-5.96,0.21-11.93,0.5-17.88,0.28c-3.19-0.12-6.45-0.9-9.49-1.94c-6.11-2.1-9.28-6.95-10.68-12.96
			c-0.82-3.53-1.41-7.16-1.63-10.77c-0.51-8.07-0.47-16.13,1.49-24.07c2.08-8.43,7.42-13.27,15.98-14.63
			c6.49-1.03,12.96-1.04,19.39,0.35c6.6,1.42,10.85,5.34,12.31,12.01c0.9,4.12,1.18,8.31,0.32,12.46c-1.12,5.37-4.69,8.43-9.92,9.48
			c-2.64,0.53-5.37,0.77-8.07,0.81c-7.54,0.11-15.09,0.04-22.63,0.04C614.23,133.07,613.65,133.07,612.88,133.07z M612.76,127.8
			c0.56,0.04,0.85,0.08,1.14,0.08c7.93,0,15.87,0.02,23.8-0.02c1.52-0.01,3.05-0.15,4.55-0.38c3.92-0.6,6.19-2.47,6.68-6.37
			c0.37-2.92,0.16-5.99-0.29-8.91c-0.75-4.88-3.95-7.64-8.73-8.6c-5.58-1.11-11.16-1.1-16.69,0.33c-3.47,0.89-6.16,2.89-7.7,6.15
			C612.88,115.67,612.87,121.67,612.76,127.8z"/>
		<path class="st4" d="M597.16,156.91c0,1.42,0.03,2.84-0.03,4.25c-0.01,0.26-0.44,0.73-0.66,0.72c-4.13-0.15-8.32,0.05-12.36-0.64
			c-5.67-0.96-8.61-5.08-9.68-10.45c-0.6-3.02-0.91-6.14-0.92-9.22c-0.07-23.29-0.04-46.57-0.04-69.86c0-0.34,0.03-0.68,0.05-1.13
			c2.32,0,4.61,0,7.11,0c0,0.61,0,1.23,0,1.85c0,22.5-0.04,45,0.04,67.5c0.01,3.12,0.36,6.29,0.94,9.36
			c0.66,3.55,3.12,5.62,6.64,6.26C591.16,156.08,594.08,156.45,597.16,156.91z"/>
		<path class="st4" d="M672.98,98.01c1.75,0,3.41,0,5.23,0c0.58,3.61,1.16,7.22,1.75,10.86c2.34-2.07,4.51-4.13,6.84-6.01
			c6.2-5.01,13.33-6.46,21.11-5.23c1.03,0.16,1.4,0.57,1.36,1.63c-0.08,1.91-0.02,3.82-0.02,5.91c-1.39-0.16-2.6-0.3-3.8-0.45
			c-6.46-0.78-12.48,0.46-17.84,4.19c-2.42,1.68-4.67,3.61-6.91,5.54c-0.45,0.39-0.64,1.28-0.64,1.94
			c-0.03,14.47-0.03,28.94-0.03,43.42c0,0.59,0,1.17,0,1.89c-2.36,0-4.64,0-7.05,0C672.98,140.55,672.98,119.37,672.98,98.01z"/>
	</g>
</g>
</svg>
